<?xml version="1.0" encoding="utf-8"?>
<!-- Generator: Adobe Illustrator 25.1.0, SVG Export Plug-In . SVG Version: 6.00 Build 0)  -->
<svg version="1.1" id="Capa_1" xmlns="http://www.w3.org/2000/svg" xmlns:xlink="http://www.w3.org/1999/xlink" x="0px" y="0px"
	 viewBox="0 0 512 415.1" style="enable-background:new 0 0 512 415.1;" xml:space="preserve">
<style type="text/css">
	.st0{fill:#000;}
</style>
<g>
	<g>
		<path class="st0" d="M401.8,88.7H110.2c-4.1,0-7.5,3.4-7.5,7.5s3.4,7.5,7.5,7.5h291.6c4.1,0,7.5-3.4,7.5-7.5
			S405.9,88.7,401.8,88.7z"/>
	</g>
</g>
<g>
	<g>
		<path class="st0" d="M401.8,170.4H110.2c-4.1,0-7.5,3.4-7.5,7.5c0,4.1,3.4,7.5,7.5,7.5h291.6c4.1,0,7.5-3.4,7.5-7.5
			S405.9,170.4,401.8,170.4z"/>
	</g>
</g>
<g>
	<g>
		<path class="st0" d="M306.2,223.5H205.8c-4.1,0-7.5,3.4-7.5,7.5c0,4.1,3.4,7.5,7.5,7.5h100.4c4.1,0,7.5-3.4,7.5-7.5
			C313.7,226.8,310.3,223.5,306.2,223.5z"/>
	</g>
</g>
<g>
	<g>
		<path class="st0" d="M401.8,129.4H184.3c-4.1,0-7.5,3.4-7.5,7.5c0,4.1,3.4,7.5,7.5,7.5h217.5c4.1,0,7.5-3.4,7.5-7.5
			S405.9,129.4,401.8,129.4z"/>
	</g>
</g>
<g>
	<g>
		<path class="st0" d="M149.4,129.4h-39.2c-4.1,0-7.5,3.4-7.5,7.5s3.4,7.5,7.5,7.5h39.2c4.1,0,7.5-3.4,7.5-7.5
			C156.9,132.8,153.5,129.4,149.4,129.4z"/>
	</g>
</g>
<g>
	<g>
		<path class="st0" d="M473.3,76c-1.7-1.7-4.1-2.7-6.5-2.7c0,0,0,0,0,0c-15.2,0-27.7-11.9-28.3-27.1c-0.2-4.9-4.3-8.8-9.2-8.8H81.1
			c-5,0-9,3.9-9.2,8.8c-0.7,14.5-12.5,26.4-27,27c-4.9,0.2-8.8,4.3-8.8,9.2v194c0,5,3.9,9,8.8,9.2c14.5,0.7,26.4,12.5,27,27
			c0.2,4.9,4.3,8.8,9.2,8.8h221.6c4.1,0,7.5-3.4,7.5-7.5c0-4.1-3.4-7.5-7.5-7.5H86.2c-3.1-18.1-17.2-32.1-35.2-35.2V87.7
			c18.1-3.1,32.1-17.2,35.2-35.2H424c3.2,18.7,18.2,33,37,35.5v127.5c0,4.1,3.4,7.5,7.5,7.5c4.1,0,7.5-3.4,7.5-7.5V82.6
			C476,80.1,475,77.8,473.3,76z"/>
	</g>
</g>
<g>
	<g>
		<path class="st0" d="M491.2,0H20.8C9.3,0,0,9.3,0,20.8v317.5c0,11.5,9.3,20.8,20.8,20.8h315l-11.2,23.4c-1.4,3-1.1,6.5,0.9,9.2
			c2,2.7,5.3,4,8.6,3.5l20.8-3.3l11.6,19c1.6,2.7,4.5,4.3,7.6,4.3c0.2,0,0.3,0,0.5,0c3.3-0.2,6.2-2.1,7.6-5.1l20.1-42.2l20.1,42.2
			c1.4,3,4.3,4.9,7.6,5.1c0.2,0,0.3,0,0.5,0c3.1,0,6-1.6,7.6-4.3l11.6-19l20.8,3.3c3.3,0.5,6.6-0.8,8.6-3.5c2-2.7,2.3-6.2,0.9-9.2
			l-11.2-23.4h22.4c11.5,0,20.8-9.3,20.8-20.8V20.8C512,9.3,502.7,0,491.2,0z M373.5,393.4l-7.9-12.9c-1.9-3.1-5.4-4.7-9-4.2
			l-13.3,2.1l14-29.4c6,4.7,15.2,5.2,21.6,7.9c2.8-0.3,5.6,0.5,7.9,2.1c0.8,0.5,1.5,1,2.3,1.5L373.5,393.4z M404.1,348.9
			C404.1,348.9,404.1,348.9,404.1,348.9c-1.2,0.2-2.4,0.2-3.5,0c0,0-0.1,0-0.1,0c-1.8-0.3-3.5-0.9-5-2c-4.5-3.2-10-4.9-15.5-4.9
			c-0.8,0-1.7,0-2.5,0.1c-5,0.5-9.7-2.3-11.8-6.8c-0.9-2-2.1-3.9-3.5-5.6c-0.1-0.1-0.1-0.2-0.2-0.2c-0.1-0.1-0.1-0.2-0.2-0.3
			c-0.1-0.1-0.2-0.2-0.3-0.3c-2.5-2.9-5.5-5.2-9-6.8c-4.5-2.1-7.3-6.8-6.8-11.8c0.6-6.4-1.1-12.8-4.8-18c-2.9-4.1-2.9-9.5,0-13.6
			c3.7-5.2,5.4-11.6,4.8-18c-0.5-5,2.3-9.7,6.8-11.8c5.8-2.7,10.5-7.4,13.2-13.2c2.1-4.5,6.8-7.3,11.8-6.8c6.4,0.6,12.8-1.1,18-4.8
			c4.1-2.9,9.5-2.9,13.6,0c5.2,3.7,11.6,5.4,18,4.8c5-0.5,9.7,2.3,11.8,6.8c2.7,5.8,7.4,10.5,13.2,13.2c4.5,2.1,7.3,6.8,6.8,11.8
			c-0.6,6.4,1.1,12.8,4.8,18c2.9,4.1,2.9,9.5,0,13.6c-3.7,5.2-5.4,11.6-4.8,18c0.5,5-2.3,9.7-6.8,11.8c-3.5,1.6-6.5,3.9-9,6.8
			c-0.1,0.1-0.2,0.2-0.3,0.3c-0.1,0.1-0.1,0.2-0.2,0.2c-0.1,0.1-0.2,0.2-0.2,0.3c-1.4,1.7-2.5,3.6-3.5,5.6
			c-2.1,4.5-6.8,7.3-11.8,6.8c-6.4-0.6-12.8,1.1-18,4.8C407.6,347.9,405.9,348.6,404.1,348.9z M448,376.3c-3.6-0.6-7.1,1.1-9,4.2
			l-7.9,12.9l-15.7-32.8c0.8-0.5,1.6-0.9,2.3-1.5c2.3-1.6,5.1-2.4,7.9-2.1c8.4-5.2,16.5-13,21.6-7.9l14,29.4L448,376.3z M497,338.3
			c0,3.2-2.6,5.8-5.8,5.8h-29.6l-3.9-8.1c0.2-0.1,0.4-0.2,0.6-0.3c4.8-7.5,11.7-17.9,15.5-26.8c-0.3-2.8,0.5-5.6,2.1-7.9
			c2.9-9.3,2.6-21.7,0-31c-1.6-2.3-2.4-5.1-2.1-7.9c-2.6-10.1-8.6-20.9-15.5-26.8c-2.6-1.2-4.6-3.2-5.8-5.8
			c-4.7-10.3-15.5-16.6-26.8-15.5c-2.8,0.3-5.6-0.5-7.9-2.1c-9.3-6.6-21.7-6.6-31,0c-2.3,1.6-5.1,2.4-7.9,2.1
			c-11.3-1.1-22.1,5.2-26.8,15.5c-1.2,2.6-3.2,4.6-5.8,5.8c-10.3,4.7-16.6,15.5-15.5,26.8c0.3,2.8-0.5,5.6-2.1,7.9
			c-6.6,9.3-6.6,21.7,0,31c1.6,2.3,2.4,5.1,2.1,7.9c-1.1,11.3,5.2,22.1,15.5,26.8c0.2,0.1,0.4,0.2,0.6,0.3l-3.9,8.1H20.8
			c-3.2,0-5.8-2.6-5.8-5.8V20.8c0-3.2,2.6-5.8,5.8-5.8h470.3c3.2,0,5.8,2.6,5.8,5.8L497,338.3L497,338.3z"/>
	</g>
</g>
<path class="st0" d="M401.3,206.7c-43.2,0-78.2,35-78.2,78.2c0,43.2,35,78.2,78.2,78.2s78.2-35,78.2-78.2
	C479.5,241.7,444.5,206.7,401.3,206.7z M401.5,261c-13.2,0-24.1,10.7-24.1,24.1s10.9,23.9,24.1,23.9c11.1,0,20.4-7.5,23.2-17.9h30.7
	v0.2c-3.2,27-26.1,48.2-53.8,48.2c-27.5,0-50.3-20.5-53.8-47.1c0-0.2-0.1-0.4-0.1-0.7c-0.1-0.8-0.2-1.7-0.2-2.5c0-0.3,0-0.5-0.1-0.8
	c-0.1-1.1-0.1-2.1-0.1-3.2c0-30,24.3-54.3,54.3-54.3h0.2c0,0,0,0,0,0c27.8,0.1,50.7,21.2,53.6,48.2h-30.7
	C422,268.7,412.7,261,401.5,261z M408.8,284.8c0,4.3-3.5,7.7-7.7,7.7c-4.3,0-7.7-3.5-7.7-7.7c0-4.3,3.5-7.7,7.7-7.7
	C405.4,277.1,408.8,280.6,408.8,284.8z"/>
</svg>
