<?xml version="1.0" encoding="utf-8"?>
<!-- Generator: Adobe Illustrator 25.4.1, SVG Export Plug-In . SVG Version: 6.00 Build 0)  -->
<svg version="1.1" id="Layer_1" xmlns="http://www.w3.org/2000/svg" xmlns:xlink="http://www.w3.org/1999/xlink" x="0px" y="0px"
	 viewBox="0 0 283.46 283.46" style="enable-background:new 0 0 283.46 283.46;" xml:space="preserve">
<style type="text/css">
	.st0{display:none;fill:#FFFFFF;}
	.st1{fill:#80C28F;}
</style>
<rect x="1.1" y="1.1" class="st0" width="281.26" height="281.26"/>
<g>
	<g>
		<path class="st1" d="M71.61,264.4v-19.33c0-2.74-1.35-4.22-3.5-4.22c-2.15,0-3.5,1.48-3.5,4.22v19.33c0,1.01-0.8,1.77-3.08,1.77
			c-2.28,0-3.08-0.76-3.08-1.77V245.2c0-5.78,3.84-9.58,9.33-9.58c2.95,0,5.49,1.31,6.92,3.17c1.44-1.86,3.97-3.17,6.92-3.17
			c5.49,0,9.33,3.8,9.33,9.58v19.21c0,1.01-0.8,1.77-3.08,1.77s-3.08-0.76-3.08-1.77v-19.33c0-2.74-1.35-4.22-3.5-4.22
			c-2.15,0-3.5,1.48-3.5,4.22v19.33c0,1.01-0.8,1.77-3.08,1.77C72.41,266.18,71.61,265.42,71.61,264.4z"/>
		<path class="st1" d="M103.86,264.4v-8.23c-4.69-1.06-7.51-4.6-7.51-9.79v-8.82c0-1.01,0.8-1.77,3.08-1.77
			c2.28,0,3.08,0.76,3.08,1.77v9.03c0,2.91,1.6,4.73,4.43,4.73s4.43-1.82,4.43-4.73v-9.03c0-1.01,0.8-1.77,3.08-1.77
			c2.28,0,3.08,0.76,3.08,1.77v8.82c0,5.19-2.83,8.74-7.51,9.79v8.23c0,1.01-0.8,1.77-3.08,1.77
			C104.66,266.18,103.86,265.42,103.86,264.4z"/>
		<path class="st1" d="M136.49,237.56c0-1.01,0.8-1.77,3.08-1.77s3.08,0.76,3.08,1.77v26.85c0,1.01-0.8,1.77-3.08,1.77
			s-3.08-0.76-3.08-1.77v-11.02h-7.39v11.02c0,1.01-0.8,1.77-3.08,1.77s-3.08-0.76-3.08-1.77v-26.85c0-1.01,0.8-1.77,3.08-1.77
			s3.08,0.76,3.08,1.77v10.64h7.39V237.56z"/>
		<path class="st1" d="M163.3,247.86c0.93,0,1.56,0.68,1.56,2.62c0,1.94-0.63,2.62-1.56,2.62h-8.57v7.51h9.84
			c0.93,0,1.56,0.68,1.56,2.62s-0.63,2.62-1.56,2.62h-14.39c-1.18,0-1.6-0.68-1.6-1.9v-25.92c0-1.22,0.42-1.9,1.6-1.9h14.18
			c0.93,0,1.56,0.68,1.56,2.62c0,1.94-0.63,2.62-1.56,2.62h-9.62v6.5H163.3z"/>
		<path class="st1" d="M183.86,264.4v-19.33c0-2.74-1.35-4.22-3.5-4.22c-2.15,0-3.5,1.48-3.5,4.22v19.33c0,1.01-0.8,1.77-3.08,1.77
			s-3.08-0.76-3.08-1.77V245.2c0-5.78,3.84-9.58,9.33-9.58c2.95,0,5.49,1.31,6.92,3.17c1.44-1.86,3.97-3.17,6.92-3.17
			c5.49,0,9.33,3.8,9.33,9.58v19.21c0,1.01-0.8,1.77-3.08,1.77s-3.08-0.76-3.08-1.77v-19.33c0-2.74-1.35-4.22-3.5-4.22
			c-2.15,0-3.5,1.48-3.5,4.22v19.33c0,1.01-0.8,1.77-3.08,1.77S183.86,265.42,183.86,264.4z"/>
		<path class="st1" d="M215.27,264.4c0,1.01-0.8,1.77-3.08,1.77s-3.08-0.76-3.08-1.77v-26.43c0-1.14,0.42-1.86,1.69-1.86h7.64
			c5.78,0,9.62,3.33,9.62,9.67c0,6.37-3.84,9.67-9.62,9.67h-3.17V264.4z M215.27,241.36v8.86h2.53c2.66,0,4.09-1.48,4.09-4.43
			s-1.43-4.43-4.09-4.43H215.27z"/>
	</g>
</g>
<g>
	<path class="st1" d="M54.82,104.52c0,3.17,1.67,3.78,3.71,1.36l10.72-12.72c2.04-2.43,3.71-7.01,3.71-10.18V39.5
		c0-3.17,2.6-5.77,5.77-5.77h2.93c3.17,0,5.77,2.6,5.77,5.77v46.59c0,3.17-1.53,7.86-3.41,10.42l-25.79,35.21
		c-1.87,2.56-3.41,7.25-3.41,10.42v72.1c0,3.17,2.6,5.77,5.77,5.77h40.07c3.17,0,5.77-2.6,5.77-5.77v-55.09
		c0-3.17,1.6-7.81,3.56-10.31l37.11-47.34c1.96-2.5,0.96-4.57-2.21-4.61l-12-0.14c-3.17-0.04-7.36,1.98-9.31,4.48L92.1,141.74
		c-1.95,2.5-3.55,7.15-3.57,10.32l-0.22,44.04c-0.02,3.17-2.62,5.77-5.8,5.77h-4.06c-3.17,0-5.77-2.6-5.77-5.77v-46.24
		c0-3.17,1.55-7.85,3.43-10.4l27.44-37.01c1.89-2.55,3.44-7.23,3.45-10.4l0.24-68.99c0.01-3.17-2.57-5.77-5.75-5.77H60.59
		c-3.17,0-5.77,2.6-5.77,5.77V104.52z"/>
	<path class="st1" d="M230.32,132.78c0-3.17-1.67-3.78-3.71-1.36l-10.72,12.72c-2.04,2.43-3.71,7.01-3.71,10.18v43.47
		c0,3.17-2.6,5.77-5.77,5.77h-2.93c-3.17,0-5.77-2.6-5.77-5.77v-46.59c0-3.17,1.53-7.86,3.41-10.42l25.79-35.21
		c1.87-2.56,3.41-7.25,3.41-10.42v-72.1c0-3.17-2.59-5.77-5.77-5.77h-40.07c-3.17,0-5.77,2.6-5.77,5.77v55.09
		c0,3.17-1.6,7.81-3.56,10.31l-37.11,47.34c-1.96,2.5-0.96,4.57,2.21,4.61l12,0.14c3.17,0.04,7.36-1.98,9.31-4.48l31.48-40.51
		c1.95-2.5,3.55-7.15,3.57-10.32l0.22-44.04c0.02-3.17,2.62-5.77,5.8-5.77h4.06c3.17,0,5.77,2.6,5.77,5.77v46.24
		c0,3.17-1.55,7.85-3.43,10.4l-27.44,37.01c-1.89,2.55-3.44,7.23-3.45,10.4l-0.24,68.99c-0.01,3.17,2.57,5.77,5.75,5.77h40.92
		c3.17,0,5.77-2.6,5.77-5.77V132.78z"/>
</g>
<g>
	<path class="st1" d="M250.25,17.29c5.45,0,9.18,4.26,9.18,10.93c0,6.67-3.73,10.93-9.18,10.93s-9.18-4.26-9.18-10.93
		C241.08,21.54,244.81,17.29,250.25,17.29z M250.25,18.74c-4.33,0-7.49,3.29-7.49,9.48c0,6.19,3.16,9.48,7.49,9.48
		c4.33,0,7.49-3.29,7.49-9.48C257.74,22.03,254.59,18.74,250.25,18.74z M246.16,22.48c0-0.51,0.33-0.85,0.93-0.85h3.64
		c2.53,0,4.15,1.15,4.15,3.92c0,1.51-0.6,2.35-1.66,2.99c1.14,0.75,1.66,1.75,1.66,3.56v1.69c0,0.51-0.36,0.88-1.23,0.88
		c-0.84,0-1.23-0.36-1.23-0.88v-1.39c0-2.11-0.69-2.9-2.05-2.9h-1.74v4.29c0,0.51-0.39,0.88-1.26,0.88c-0.78,0-1.2-0.36-1.2-0.88
		V22.48z M250.04,23.69h-1.41v3.77h1.41c1.47,0,2.38-0.21,2.38-1.87C252.42,23.96,251.52,23.69,250.04,23.69z"/>
</g>
</svg>
