<svg xmlns="http://www.w3.org/2000/svg" viewBox="0 0 85 85" xmlns:v="https://vecta.io/nano"><path d="M85 43.1c0 .9-.1 1.7-.3 2.6-.2.8-.6 1.7-1 2.4-.5.7-1 1.4-1.7 2-.6.6-1.4 1.1-2.2 1.5v.7 1.4.7c0 14.3-16.7 25.9-37.2 25.9S5.4 68.7 5.4 54.4v-.7-1.4-.7c-2.5-1.1-4.3-3.3-5.1-5.9-.7-2.6-.3-5.5 1.2-7.7 1.5-2.3 4-3.7 6.7-4.1 2.7-.3 5.4.6 7.4 2.5 1.8-1.2 3.7-2.3 5.7-3.3s4-1.8 6.1-2.4 4.3-1.2 6.4-1.5c2.2-.4 4.4-.5 6.6-.6l4.7-22.1c.1-.3.2-.5.3-.7l.8-.8c.2-.1.5-.2.7-.3h.8l15.6 3.1c1.6-2.7 4.9-3.9 7.8-2.7 2.9 1.1 4.6 4.2 3.9 7.3s-3.4 5.2-6.6 5c-3.1-.2-5.7-2.6-6-5.7L48.8 8.9l-4.1 19.9c2.2 0 4.4.3 6.5.6 4.3.7 8.5 2.1 12.4 4 2 1 3.8 2 5.7 3.3 1.3-1.2 2.9-2.1 4.7-2.4s3.6-.2 5.3.5 3.1 1.8 4.1 3.3c1 1.4 1.5 3.2 1.6 5zm-63.3 8.8c.3.8.8 1.5 1.4 2.1s1.3 1.1 2.1 1.4 1.6.5 2.4.5c2.6 0 4.9-1.6 5.9-3.9 1-2.4.4-5.1-1.4-7-1.8-1.8-4.6-2.4-7-1.4s-3.9 3.3-3.9 5.9c0 .8.2 1.6.5 2.4zm36.5 15.3c.3-.3.5-.8.5-1.2 0-.5-.2-.9-.5-1.2s-.8-.5-1.2-.5c-.5 0-.9.2-1.3.4a23.81 23.81 0 0 1-3 1.8c-1.1.5-2.2.9-3.3 1.3-1.1.3-2.3.6-3.5.7s-2.4.2-3.5.1c-1.2.1-2.4 0-3.5-.1-1.2-.1-2.3-.4-3.5-.7-1.1-.3-2.2-.8-3.3-1.3s-2.1-1.1-3-1.8c-.3-.3-.7-.4-1.2-.4-.4 0-.8.2-1.1.5s-.5.7-.5 1.1a1.92 1.92 0 0 0 .4 1.2c1.1.8 2.3 1.6 3.6 2.2s2.6 1.2 3.9 1.6a27.13 27.13 0 0 0 4.1.9c1.4.2 2.8.2 4.2.2 1.4.1 2.8 0 4.2-.2 2.8-.4 5.5-1.2 8-2.5 1.2-.6 2.4-1.4 3.6-2.2l-.1.1zm-1.1-10.9c.9 0 1.7-.2 2.5-.5s1.5-.8 2.1-1.4 1.1-1.4 1.4-2.2.5-1.7.4-2.5c0-2.6-1.6-4.9-3.9-5.9-2.4-1-5.1-.4-7 1.4-1.8 1.8-2.4 4.6-1.4 7s3.3 3.9 5.9 3.9v.2z" fill="#fff"/></svg>