<svg xmlns="http://www.w3.org/2000/svg" viewBox="0 0 85 85" fill="#fff" xmlns:v="https://vecta.io/nano"><path d="M42.5 85C19.1 85 0 65.9 0 42.5S19.1 0 42.5 0 85 19.1 85 42.5 65.9 85 42.5 85zm0-79.9C21.9 5.1 5.1 21.9 5.1 42.5s16.8 37.4 37.4 37.4 37.4-16.8 37.4-37.4S63.2 5.1 42.5 5.1zM17.4 44.5c4.7-2.6 9.9-4.7 14.8-6.9l25.3-10.2c1.7-.6 4.6-1.1 4.9 1.4-.2 3.5-.8 6.9-1.3 10.4-1.1 7.6-2.5 15.1-3.8 22.7-.4 2.5-3.6 3.8-5.6 2.2l-14.5-9.9c-1.6-1.6-.1-3.9 1.3-5 4-3.9 8.2-7.3 12-11.4 1-2.5-2-.4-3 .2-5.4 3.7-10.8 7.7-16.5 11-2.9 1.6-6.4.2-9.3-.7-2.7-1.1-6.6-2.2-4.3-3.8h0z"/></svg>