<svg xmlns="http://www.w3.org/2000/svg" viewBox="0 0 85 85" xmlns:v="https://vecta.io/nano"><path d="M26.521 75.642c31.8 0 49.2-26.3 49.2-49.2v-2.2c3.4-2.4 6.3-5.5 8.6-8.9-3.1 1.4-6.4 2.3-9.9 2.7 3.6-2.1 6.3-5.5 7.6-9.6-3.3 2-7 3.4-11 4.2-3.2-3.4-7.6-5.5-12.6-5.5a17.31 17.31 0 0 0-17.3 17.3c0 1.4.2 2.7.4 3.9-14.4-.7-27.1-7.6-35.6-18.1-1.5 2.6-2.3 5.5-2.3 8.7 0 6 3.1 11.3 7.7 14.4a17.2 17.2 0 0 1-7.8-2.2v.2c0 8.4 6 15.4 13.9 16.9a17.59 17.59 0 0 1-4.6.6c-1.1 0-2.2-.1-3.2-.3 2.2 6.9 8.6 11.9 16.1 12-5.9 4.6-13.4 7.4-21.5 7.4-1.4 0-2.8-.1-4.1-.2 7.5 5.1 16.6 7.9 26.4 7.9" fill="#fff"/></svg>